<mxfile host="app.diagrams.net" modified="2023-11-02T19:56:35.203Z" agent="Mozilla/5.0 (Macintosh; Intel Mac OS X 10.15; rv:109.0) Gecko/20100101 Firefox/119.0" etag="Mw7HrDBDoOvS4Gw_18dI" version="22.0.8" type="github">
  <diagram name="Page-1" id="t5DY0pdhTek03SPCFMvE">
    <mxGraphModel dx="900" dy="543" grid="1" gridSize="10" guides="1" tooltips="1" connect="1" arrows="1" fold="1" page="1" pageScale="1" pageWidth="850" pageHeight="1100" math="0" shadow="0">
      <root>
        <mxCell id="0" />
        <mxCell id="1" parent="0" />
        <mxCell id="IQDAUgR3bY583TOtwMsw-1" value="Borrower" style="rounded=0;whiteSpace=wrap;html=1;" vertex="1" parent="1">
          <mxGeometry x="360" y="260" width="120" height="60" as="geometry" />
        </mxCell>
      </root>
    </mxGraphModel>
  </diagram>
</mxfile>
